<svg width="297" height="24" viewBox="0 0 297 24" fill="none" xmlns="http://www.w3.org/2000/svg">
<circle cx="207" cy="12" r="12" fill="#F9F9F9"/>
<path d="M211.8 12.4468V15.7562H209.863V12.6486C209.863 11.8818 209.58 11.3571 208.894 11.3571C208.369 11.3571 208.046 11.7204 207.925 12.0432C207.885 12.1643 207.845 12.3258 207.845 12.5275V15.7562H205.907C205.907 15.7562 205.948 10.5096 205.907 9.98495H207.845V10.7921C208.087 10.3885 208.571 9.82351 209.58 9.82351C210.831 9.82351 211.8 10.671 211.8 12.4468ZM203.889 7.2002C203.244 7.2002 202.8 7.64414 202.8 8.20916C202.8 8.77419 203.203 9.21813 203.849 9.21813C204.535 9.21813 204.939 8.77419 204.939 8.20916C204.979 7.60378 204.576 7.2002 203.889 7.2002ZM202.921 15.7562H204.858V9.98495H202.921V15.7562Z" fill="#666666"/>
<circle cx="246" cy="12" r="12" fill="#F9F9F9"/>
<path d="M239.609 12.2246L242.368 13.2534L243.443 16.7136C243.49 16.9474 243.771 16.9942 243.958 16.8539L245.501 15.5914C245.641 15.4511 245.875 15.4511 246.062 15.5914L248.821 17.6021C249.008 17.7423 249.288 17.6488 249.335 17.415L251.392 7.59539C251.439 7.36159 251.205 7.12779 250.972 7.22131L239.609 11.6168C239.328 11.7103 239.328 12.1311 239.609 12.2246ZM243.303 12.739L248.727 9.41903C248.821 9.37227 248.914 9.51256 248.821 9.55932L244.378 13.721C244.238 13.8612 244.098 14.0483 244.098 14.2821L243.958 15.4043C243.958 15.5446 243.724 15.5914 243.677 15.4043L243.116 13.3469C242.976 13.1131 243.069 12.8325 243.303 12.739Z" fill="#666666"/>
<circle cx="129" cy="12" r="12" fill="#F9F9F9"/>
<path d="M134.229 11.3483C134.229 11.1155 134.191 10.844 134.191 10.5337C134.152 10.2234 134.113 9.91312 134.074 9.6416C133.997 9.3313 133.88 9.09857 133.648 8.90463C133.454 8.71069 133.182 8.59433 132.911 8.55554C132.019 8.43918 130.7 8.40039 128.916 8.40039C127.131 8.40039 125.774 8.43918 124.92 8.55554C124.649 8.59433 124.377 8.71069 124.183 8.90463C123.989 9.09857 123.834 9.3313 123.757 9.6416C123.679 9.91312 123.64 10.1846 123.64 10.5337C123.602 10.844 123.602 11.1155 123.602 11.3483C123.602 11.581 123.602 11.8525 123.602 12.2404C123.602 12.6283 123.602 12.9386 123.602 13.1325C123.602 13.3652 123.64 13.6368 123.64 13.9471C123.679 14.2574 123.718 14.5677 123.757 14.8392C123.834 15.1495 123.951 15.3822 124.183 15.5761C124.377 15.7701 124.649 15.8864 124.92 15.9252C125.812 16.0416 127.131 16.0804 128.916 16.0804C130.7 16.0804 132.057 16.0416 132.911 15.9252C133.182 15.8864 133.454 15.7701 133.648 15.5761C133.842 15.3822 133.997 15.1495 134.074 14.8392C134.152 14.5677 134.191 14.2961 134.191 13.9471C134.229 13.6368 134.229 13.3652 134.229 13.1325C134.229 12.8998 134.229 12.6283 134.229 12.2404C134.229 11.8525 134.229 11.5422 134.229 11.3483ZM130.971 12.5507L127.907 14.4513C127.868 14.4901 127.791 14.5289 127.713 14.5289C127.636 14.5289 127.597 14.5289 127.519 14.4901C127.403 14.4125 127.325 14.2961 127.325 14.141V10.301C127.325 10.1458 127.403 10.0295 127.519 9.95191C127.636 9.87433 127.791 9.87433 127.907 9.95191L130.971 11.8525C131.088 11.9301 131.165 12.0465 131.165 12.1628C131.165 12.2792 131.088 12.4731 130.971 12.5507Z" fill="#666666"/>
<circle cx="90" cy="12" r="12" fill="#F9F9F9"/>
<path d="M93.9487 7.2002H86.6517C85.8279 7.2002 85.2002 7.82789 85.2002 8.65173V15.9487C85.2002 16.7725 85.8279 17.4002 86.6517 17.4002H93.9487C94.7725 17.4002 95.4002 16.7725 95.4002 15.9487V8.65173C95.4002 7.82789 94.7725 7.2002 93.9487 7.2002ZM90.3002 15.3602C91.9871 15.3602 93.3602 14.0263 93.3602 12.4179C93.3602 12.1433 93.321 11.8294 93.2425 11.594H94.1056V15.7525C94.1056 15.9487 93.9487 16.1448 93.7133 16.1448H86.8871C86.691 16.1448 86.4948 15.9879 86.4948 15.7525V11.5548H87.3971C87.3187 11.8294 87.2794 12.104 87.2794 12.3787C87.2402 14.0263 88.6133 15.3602 90.3002 15.3602ZM90.3002 14.1833C89.2017 14.1833 88.3387 13.3202 88.3387 12.261C88.3387 11.2017 89.2017 10.3387 90.3002 10.3387C91.3987 10.3387 92.2617 11.2017 92.2617 12.261C92.2617 13.3594 91.3987 14.1833 90.3002 14.1833ZM94.0664 9.98558C94.0664 10.221 93.8702 10.4171 93.6348 10.4171H92.5363C92.301 10.4171 92.1048 10.221 92.1048 9.98558V8.92635C92.1048 8.69096 92.301 8.49481 92.5363 8.49481H93.6348C93.8702 8.49481 94.0664 8.69096 94.0664 8.92635V9.98558Z" fill="#666666"/>
<circle cx="51" cy="12" r="12" fill="#F9F9F9"/>
<path d="M56.8831 15.0695C56.8831 15.0197 56.8333 15.0197 56.8333 14.9699C56.6341 14.5714 56.1857 14.0733 55.588 13.5253C55.2891 13.2763 55.1396 13.077 55.04 12.9774C54.8906 12.7781 54.8906 12.6287 54.9404 12.4294C54.9902 12.28 55.1894 12.0309 55.5381 11.5826C55.7374 11.3335 55.837 11.1841 55.9865 11.0346C56.7337 10.0384 57.0824 9.39077 56.9827 9.09189L56.9329 9.04208C56.8831 8.99227 56.8333 8.94246 56.7337 8.94246C56.634 8.89264 56.4846 8.89264 56.3352 8.94246H54.4423C54.3924 8.94246 54.3924 8.94246 54.2928 8.94246C54.243 8.94246 54.1932 8.94246 54.1932 8.94246H54.1434H54.0935L54.0437 8.99227C53.9939 9.04208 53.9939 9.04208 53.9939 9.09189C53.7947 9.63984 53.5456 10.0882 53.2965 10.5863C53.1471 10.8354 52.9976 11.0844 52.8482 11.2837C52.6988 11.483 52.5991 11.6324 52.4995 11.732C52.3999 11.8317 52.3002 11.8815 52.2504 11.9811C52.2006 12.0309 52.101 12.0807 52.101 12.0309C52.0512 12.0309 52.0014 12.0309 52.0014 11.9811C51.9516 11.9313 51.9017 11.8815 51.8519 11.8316C51.8021 11.7818 51.8021 11.6822 51.7523 11.5826C51.7523 11.483 51.7523 11.3833 51.7523 11.3335C51.7523 11.2837 51.7523 11.1343 51.7523 11.0346C51.7523 10.8852 51.7523 10.7856 51.7523 10.7357C51.7523 10.5863 51.7523 10.3871 51.7523 10.1878C51.7523 9.98855 51.7523 9.8391 51.7523 9.73947C51.7523 9.63984 51.7523 9.49041 51.7523 9.39078C51.7523 9.24134 51.7523 9.14171 51.7523 9.09189C51.7523 9.04208 51.7025 8.94245 51.7025 8.89264C51.6527 8.84283 51.6029 8.79301 51.553 8.7432C51.5032 8.69338 51.4036 8.69339 51.3538 8.64357C51.1047 8.59376 50.8058 8.54395 50.4572 8.54395C49.6601 8.54395 49.1122 8.59376 48.9129 8.69339C48.8133 8.7432 48.7137 8.79301 48.6639 8.89264C48.5642 8.99227 48.5642 9.04208 48.614 9.04208C48.8631 9.0919 49.0624 9.19152 49.162 9.34096L49.2118 9.44059C49.2616 9.49041 49.2616 9.59003 49.3114 9.73947C49.3612 9.88891 49.3612 10.0384 49.3612 10.2376C49.3612 10.5365 49.3612 10.8354 49.3612 11.0346C49.3612 11.2837 49.3114 11.4331 49.3114 11.5826C49.3114 11.732 49.2616 11.8317 49.2118 11.8815C49.162 11.9811 49.162 12.0309 49.1122 12.0309C49.1122 12.0309 49.1122 12.0807 49.0624 12.0807C49.0125 12.0807 48.9627 12.1305 48.8631 12.1305C48.8133 12.1305 48.7137 12.0807 48.6639 12.0309C48.5642 11.9811 48.4646 11.8815 48.4148 11.7818C48.3152 11.6822 48.2155 11.5328 48.1159 11.3335C48.0163 11.1343 47.8668 10.935 47.7672 10.6361L47.6676 10.4369C47.6178 10.3372 47.5181 10.138 47.4185 9.88892C47.3189 9.63985 47.2193 9.44059 47.1196 9.19153C47.0698 9.0919 47.02 9.04208 46.9702 8.99227H46.9204C46.9204 8.99227 46.8706 8.94246 46.8207 8.94246C46.7709 8.94246 46.7211 8.89264 46.6713 8.89264H44.878C44.6787 8.89264 44.5791 8.94245 44.5293 8.99227L44.4795 9.04208C44.4795 9.04208 44.4795 9.0919 44.4795 9.14171C44.4795 9.19152 44.4795 9.24133 44.5293 9.34096C44.7784 9.93873 45.0773 10.5365 45.3761 11.1343C45.675 11.6822 45.9739 12.1803 46.1732 12.529C46.4222 12.8777 46.6215 13.2264 46.8706 13.5253C47.1196 13.8242 47.2691 14.0235 47.3189 14.1231C47.4185 14.2227 47.4683 14.2725 47.5181 14.3223L47.6676 14.4718C47.7672 14.5714 47.9166 14.7208 48.1159 14.8703C48.3152 15.0197 48.5642 15.1692 48.8133 15.3186C49.0624 15.4681 49.3612 15.5677 49.6601 15.6673C50.0088 15.7669 50.3077 15.8168 50.6066 15.7669H51.3538C51.5032 15.7669 51.6029 15.7171 51.7025 15.6175L51.7523 15.5677C51.7523 15.5179 51.8021 15.5179 51.8021 15.4681C51.8021 15.4182 51.8021 15.3684 51.8021 15.2688C51.8021 15.0695 51.8021 14.9201 51.8519 14.7707C51.9017 14.6212 51.9017 14.5216 51.9516 14.422C52.0014 14.3223 52.0512 14.2725 52.101 14.2227C52.1508 14.1729 52.2006 14.1231 52.2006 14.1231H52.2504C52.3501 14.0733 52.4995 14.1231 52.5991 14.2227C52.7486 14.3223 52.898 14.4718 52.9976 14.6212C53.0973 14.7707 53.2467 14.9201 53.446 15.1194C53.6452 15.3186 53.7947 15.4681 53.8943 15.5179L54.0437 15.6175C54.1434 15.6673 54.243 15.7171 54.3924 15.7669C54.5419 15.8168 54.6415 15.8167 54.7411 15.8167L56.4348 15.7669C56.5842 15.7669 56.7337 15.7171 56.8333 15.6673C56.9329 15.6175 56.9827 15.5677 56.9827 15.4681C56.9827 15.4182 56.9827 15.3186 56.9827 15.2688C56.8831 15.1692 56.8831 15.1194 56.8831 15.0695Z" fill="#666666"/>
<circle cx="12" cy="12" r="12" fill="#F9F9F9"/>
<path d="M17.4002 8.2908C17.4002 7.39235 16.6075 6.59961 15.709 6.59961H8.89139C7.99294 6.59961 7.2002 7.39235 7.2002 8.2908V15.1084C7.2002 16.0069 7.99294 16.7996 8.89139 16.7996H12.3266V12.9416H11.0582V11.2504H12.3266V10.5633C12.3266 9.40065 13.1722 8.3965 14.2292 8.3965H15.6033V10.0877H14.2292C14.0707 10.0877 13.9121 10.2462 13.9121 10.5633V11.2504H15.6033V12.9416H13.9121V16.7996H15.709C16.6075 16.7996 17.4002 16.0069 17.4002 15.1084V8.2908Z" fill="#666666"/>
<circle cx="168" cy="12" r="12" fill="#F9F9F9"/>
<path d="M174.362 8.9398C173.942 9.1198 173.462 9.2398 172.982 9.2998C173.462 8.9998 173.882 8.51981 174.062 7.97981C173.582 8.27981 173.102 8.45981 172.502 8.57981C172.082 8.09981 171.422 7.7998 170.762 7.7998C169.442 7.7998 168.362 8.8798 168.362 10.1998C168.362 10.3798 168.362 10.5598 168.422 10.7398C166.442 10.6198 164.642 9.6598 163.442 8.2198C163.262 8.5798 163.142 8.9998 163.142 9.4198C163.142 10.2598 163.562 10.9798 164.222 11.3998C163.802 11.3998 163.442 11.2798 163.142 11.0998C163.142 12.2398 163.982 13.2598 165.062 13.4398C164.882 13.4998 164.642 13.4998 164.402 13.4998C164.222 13.4998 164.102 13.4998 163.922 13.4398C164.222 14.3998 165.122 15.1198 166.202 15.1198C165.362 15.7798 164.342 16.1398 163.202 16.1398C163.022 16.1398 162.842 16.1398 162.602 16.0798C163.682 16.7398 164.942 17.1598 166.322 17.1598C170.762 17.1598 173.162 13.4998 173.162 10.3198V10.0198C173.642 9.8398 174.062 9.4198 174.362 8.9398Z" fill="#666666"/>
<circle cx="285" cy="12" r="12" fill="#F9F9F9"/>
<path d="M289.756 7.23789C288.571 6.05664 286.99 5.40039 285.322 5.40039C281.854 5.40039 279.044 8.20039 279.044 11.6566C279.044 12.7504 279.351 13.8441 279.878 14.7629L279 18.0004L282.337 17.1254C283.259 17.6066 284.268 17.8691 285.322 17.8691C288.79 17.8691 291.6 15.0691 291.6 11.6129C291.556 9.99414 290.941 8.41914 289.756 7.23789ZM288.351 13.8879C288.22 14.2379 287.605 14.5879 287.298 14.6316C287.034 14.6754 286.683 14.6754 286.332 14.5879C286.112 14.5004 285.805 14.4129 285.454 14.2379C283.873 13.5816 282.863 12.0066 282.776 11.8754C282.688 11.7879 282.117 11.0441 282.117 10.2566C282.117 9.46914 282.512 9.11914 282.644 8.94414C282.776 8.76914 282.951 8.76914 283.083 8.76914C283.171 8.76914 283.302 8.76914 283.39 8.76914C283.478 8.76914 283.61 8.72539 283.741 9.03164C283.873 9.33789 284.18 10.1254 284.224 10.1691C284.268 10.2566 284.268 10.3441 284.224 10.4316C284.18 10.5191 284.137 10.6066 284.049 10.6941C283.961 10.7816 283.873 10.9129 283.829 10.9566C283.741 11.0441 283.654 11.1316 283.741 11.2629C283.829 11.4379 284.137 11.9191 284.62 12.3566C285.234 12.8816 285.717 13.0566 285.893 13.1441C286.068 13.2316 286.156 13.1879 286.244 13.1004C286.332 13.0129 286.639 12.6629 286.727 12.4879C286.815 12.3129 286.946 12.3566 287.078 12.4004C287.21 12.4441 288 12.8379 288.132 12.9254C288.307 13.0129 288.395 13.0566 288.439 13.1004C288.483 13.2316 288.483 13.5379 288.351 13.8879Z" fill="#666666"/>
</svg>
